<svg id="Iconly_Bold_Heart" data-name="Iconly/Bold/Heart" xmlns="http://www.w3.org/2000/svg" width="50" height="50" viewBox="0 0 50 50">
  <g id="Heart" transform="translate(4.159 5.209)">
    <path id="Heart-2" data-name="Heart" d="M20.9,39.583h0l-.539-.333A79.507,79.507,0,0,1,7.092,28.915a27.069,27.069,0,0,1-6.274-10,16.134,16.134,0,0,1,.3-10.989A12.675,12.675,0,0,1,9.009.561,9.385,9.385,0,0,1,10.861.126h.249A11.884,11.884,0,0,1,12.862,0h.229A13.054,13.054,0,0,1,16.9.688h.124a.689.689,0,0,1,.187.124,7.032,7.032,0,0,1,1.313.544l.791.353a5.473,5.473,0,0,1,.594.4c.119.087.222.161.3.21l.085.05a5.072,5.072,0,0,1,.539.344A12.966,12.966,0,0,1,28.769,0h.092a12.138,12.138,0,0,1,3.876.606A12.54,12.54,0,0,1,40.56,7.933a16.489,16.489,0,0,1,.321,10.984,26.628,26.628,0,0,1-6.268,10.02A80.419,80.419,0,0,1,21.423,39.27l-.52.312ZM31.126,6.5a1.686,1.686,0,0,0-1.577,1.13A1.707,1.707,0,0,0,30.59,9.769a3.492,3.492,0,0,1,2.229,3.272V13.1a1.792,1.792,0,0,0,.4,1.292A1.751,1.751,0,0,0,34.4,15a1.714,1.714,0,0,0,1.646-1.584v-.248a6.877,6.877,0,0,0-4.395-6.585A1.624,1.624,0,0,0,31.126,6.5Z" transform="translate(0 0)" fill="#0a0a0a"/>
  </g>
</svg>
